<svg width="24" height="24" viewBox="0 0 24 24" fill="none" xmlns="http://www.w3.org/2000/svg">
<path d="M16.7494 7.34555C16.7494 9.83756 14.6231 11.8577 12.0002 11.8577C9.37724 11.8577 7.25095 9.83756 7.25095 7.34555C7.25095 4.85354 9.37724 2.83337 12.0002 2.83337C14.6231 2.83337 16.7494 4.85354 16.7494 7.34555Z" fill="#909090"/>
<path d="M3.58715 17.2377C5.14628 16.0727 8.2492 14.1871 12.0002 14.1871C15.7511 14.1871 18.854 16.0727 20.4132 17.2377C21.1091 17.7577 21.3262 18.6368 21.0514 19.4364L20.6764 20.5276C20.3575 21.4555 19.4465 22.0834 18.4191 22.0834H5.58126C4.55379 22.0834 3.64287 21.4555 3.32394 20.5276L2.94894 19.4364C2.67411 18.6368 2.89121 17.7577 3.58715 17.2377Z" fill="#909090"/>
</svg>
