<svg width="29" height="29" viewBox="0 0 29 29" fill="none" xmlns="http://www.w3.org/2000/svg">
<g clip-path="url(#clip0)">
<path d="M29 26.2351C29 27.7623 27.7623 29 26.2351 29H2.76486C1.23772 29 0 27.7623 0 26.2351V2.76486C0 1.23772 1.23772 0 2.76486 0H26.2351C27.7623 0 29 1.23772 29 2.76486V26.2351Z" fill="#F2BB18"/>
<path d="M21.2541 10.2456L20.1416 9.20798C19.829 8.91624 19.3389 8.93364 19.0472 9.24626L12.0535 16.7462L9.60825 13.5011C9.35073 13.1595 8.86527 13.0911 8.52365 13.3486L7.30855 14.2638C6.96693 14.5214 6.89849 15.0068 7.15601 15.3484L10.0038 19.1277L11.223 20.7459L11.3506 20.8648C11.6632 21.1566 12.1533 21.1392 12.445 20.8265L13.9287 19.2356L21.2912 11.3401C21.5841 11.0274 21.5673 10.5373 21.2541 10.2456Z" fill="black"/>
</g>
<defs>
<clipPath id="clip0">
<rect width="29" height="29" fill="white"/>
</clipPath>
</defs>
</svg>
