<svg width="24" height="24" viewBox="0 0 24 24" fill="none" xmlns="http://www.w3.org/2000/svg">
<path d="M3.60002 3.6H20.4C20.7183 3.6 21.0235 3.72643 21.2486 3.95147C21.4736 4.17651 21.6 4.48174 21.6 4.8C21.6 5.11826 21.4736 5.42348 21.2486 5.64853C21.0235 5.87357 20.7183 6 20.4 6H3.60002C3.28176 6 2.97654 5.87357 2.7515 5.64853C2.52645 5.42348 2.40002 5.11826 2.40002 4.8C2.40002 4.48174 2.52645 4.17651 2.7515 3.95147C2.97654 3.72643 3.28176 3.6 3.60002 3.6ZM6.00002 8.4H18C18.3183 8.4 18.6235 8.52643 18.8486 8.75147C19.0736 8.97651 19.2 9.28174 19.2 9.6C19.2 9.91826 19.0736 10.2235 18.8486 10.4485C18.6235 10.6736 18.3183 10.8 18 10.8H6.00002C5.68176 10.8 5.37654 10.6736 5.1515 10.4485C4.92645 10.2235 4.80002 9.91826 4.80002 9.6C4.80002 9.28174 4.92645 8.97651 5.1515 8.75147C5.37654 8.52643 5.68176 8.4 6.00002 8.4ZM3.60002 13.2H20.4C20.7183 13.2 21.0235 13.3264 21.2486 13.5515C21.4736 13.7765 21.6 14.0817 21.6 14.4C21.6 14.7183 21.4736 15.0235 21.2486 15.2485C21.0235 15.4736 20.7183 15.6 20.4 15.6H3.60002C3.28176 15.6 2.97654 15.4736 2.7515 15.2485C2.52645 15.0235 2.40002 14.7183 2.40002 14.4C2.40002 14.0817 2.52645 13.7765 2.7515 13.5515C2.97654 13.3264 3.28176 13.2 3.60002 13.2ZM6.00002 18H18C18.3183 18 18.6235 18.1264 18.8486 18.3515C19.0736 18.5765 19.2 18.8817 19.2 19.2C19.2 19.5183 19.0736 19.8235 18.8486 20.0485C18.6235 20.2736 18.3183 20.4 18 20.4H6.00002C5.68176 20.4 5.37654 20.2736 5.1515 20.0485C4.92645 19.8235 4.80002 19.5183 4.80002 19.2C4.80002 18.8817 4.92645 18.5765 5.1515 18.3515C5.37654 18.1264 5.68176 18 6.00002 18Z" fill="#1b0f29"/>
</svg>
