<svg width="20" height="22" viewBox="0 0 20 22" fill="none" xmlns="http://www.w3.org/2000/svg">
<path fill-rule="evenodd" clip-rule="evenodd" d="M0 1.1C0 0.492487 0.499241 0 1.11509 0H2.78772C3.71148 0 4.46035 0.738729 4.46035 1.65V2.2666L18.4314 3.26499C19.4057 3.32506 20.121 4.19189 19.9829 5.14512L19.0216 11.7833C18.9039 12.5962 18.1982 13.2 17.3658 13.2H4.46035V15.4H15.6192C17.4667 15.4 18.9644 16.8775 18.9644 18.7C18.9644 20.5225 17.4667 22 15.6192 22C13.7716 22 12.2739 20.5225 12.2739 18.7C12.2739 18.3143 12.341 17.9441 12.4643 17.6H6.50017C6.62344 17.9441 6.69052 18.3143 6.69052 18.7C6.69052 20.5225 5.1928 22 3.34526 22C1.49772 22 0 20.5225 0 18.7C0 17.2632 0.930883 16.0408 2.23017 15.5878V3.31016C2.23012 3.3041 2.23012 3.29803 2.23017 3.29194V2.2H1.11509C0.499241 2.2 0 1.70751 0 1.1ZM14.5041 18.7C14.5041 18.0925 15.0033 17.6 15.6192 17.6C16.235 17.6 16.7342 18.0925 16.7342 18.7C16.7342 19.3075 16.235 19.8 15.6192 19.8C15.0033 19.8 14.5041 19.3075 14.5041 18.7ZM2.23017 18.7C2.23017 18.0925 2.72941 17.6 3.34526 17.6C3.9611 17.6 4.46035 18.0925 4.46035 18.7C4.46035 19.3075 3.9611 19.8 3.34526 19.8C2.72941 19.8 2.23017 19.3075 2.23017 18.7Z" fill="#909090"/>
</svg>
