<svg width="24" height="24" viewBox="0 0 24 24" fill="none" xmlns="http://www.w3.org/2000/svg">
<path fill-rule="evenodd" clip-rule="evenodd" d="M9.71429 3.2C9.71429 1.98497 10.7376 1 12 1C13.2624 1 14.2857 1.98497 14.2857 3.2H18.2857C19.2325 3.2 20 3.93873 20 4.85V21.35C20 22.2613 19.2325 23 18.2857 23H5.71429C4.76751 23 4 22.2613 4 21.35V4.85C4 3.93873 4.76751 3.2 5.71429 3.2H9.71429ZM8.57143 13.1C8.57143 13.7075 8.05975 14.2 7.42857 14.2C6.79739 14.2 6.28571 13.7075 6.28571 13.1C6.28571 12.4925 6.79739 12 7.42857 12C8.05975 12 8.57143 12.4925 8.57143 13.1ZM7.42857 18.6C8.05975 18.6 8.57143 18.1075 8.57143 17.5C8.57143 16.8925 8.05975 16.4 7.42857 16.4C6.79739 16.4 6.28571 16.8925 6.28571 17.5C6.28571 18.1075 6.79739 18.6 7.42857 18.6ZM16.5714 7.05C16.5714 6.13873 15.8039 5.4 14.8571 5.4H9.14286C8.19608 5.4 7.42857 6.13873 7.42857 7.05V7.6H16.5714V7.05ZM10.8571 14.2H17.7143V12H10.8571V14.2ZM10.8571 16.4H17.7143V18.6H10.8571V16.4Z" fill="#909090"/>
</svg>
