<svg width="16" height="16" viewBox="0 0 16 16" fill="none" xmlns="http://www.w3.org/2000/svg">
<path d="M9.13118 7.99998L14.1656 2.96558C14.3156 2.81557 14.3999 2.61212 14.3999 2.39998C14.3999 2.18784 14.3156 1.98438 14.1656 1.83438C14.0156 1.68437 13.8121 1.6001 13.6 1.6001C13.3878 1.6001 13.1844 1.68437 13.0344 1.83438L7.99998 6.86878L2.96558 1.83438C2.8913 1.7601 2.80312 1.70118 2.70608 1.66098C2.60903 1.62079 2.50502 1.6001 2.39998 1.6001C2.29494 1.6001 2.19092 1.62079 2.09388 1.66098C1.99683 1.70118 1.90865 1.7601 1.83438 1.83438C1.68437 1.98438 1.6001 2.18784 1.6001 2.39998C1.6001 2.61212 1.68437 2.81557 1.83438 2.96558L6.86878 7.99998L1.83438 13.0344C1.68437 13.1844 1.6001 13.3878 1.6001 13.6C1.6001 13.8121 1.68437 14.0156 1.83438 14.1656C1.98438 14.3156 2.18784 14.3999 2.39998 14.3999C2.61212 14.3999 2.81557 14.3156 2.96558 14.1656L7.99998 9.13118L13.0344 14.1656C13.1085 14.2401 13.1966 14.2993 13.2937 14.3397C13.3908 14.38 13.4949 14.4008 13.6 14.4008C13.7051 14.4008 13.8092 14.38 13.9063 14.3397C14.0033 14.2993 14.0915 14.2401 14.1656 14.1656C14.2399 14.0913 14.2989 14.0032 14.3392 13.9061C14.3794 13.8091 14.4001 13.705 14.4001 13.6C14.4001 13.4949 14.3794 13.3909 14.3392 13.2938C14.2989 13.1968 14.2399 13.1086 14.1656 13.0344L9.13118 7.99998Z" fill="#909090"/>
</svg>
