<svg width="20" height="20" viewBox="0 0 20 20" fill="none" xmlns="http://www.w3.org/2000/svg">
<path fill-rule="evenodd" clip-rule="evenodd" d="M10 13C9.91316 13 9.83634 12.9656 9.76954 12.8969L5.1002 8.09278C5.0334 8.02405 5 7.94502 5 7.85567C5 7.76632 5.0334 7.68729 5.1002 7.61856L5.6012 7.10309C5.668 7.03436 5.74482 7 5.83166 7C5.9185 7 5.99532 7.03436 6.06212 7.10309L10 11.1546L13.9379 7.10309C14.0047 7.03436 14.0815 7 14.1683 7C14.2552 7 14.332 7.03436 14.3988 7.10309L14.8998 7.61856C14.9666 7.68729 15 7.76632 15 7.85567C15 7.94502 14.9666 8.02405 14.8998 8.09278L10.2305 12.8969C10.1637 12.9656 10.0868 13 10 13Z" fill="#25262D"/>
</svg>
