<svg width="23" height="25" viewBox="0 0 23 25" fill="none" xmlns="http://www.w3.org/2000/svg">
<path d="M11.4641 21.4453C6.93594 21.4453 3.23438 17.4219 3.23438 12.5C3.23438 7.57812 6.93594 3.55469 11.4641 3.55469C15.9922 3.55469 19.6937 7.57812 19.6937 12.5C19.7297 17.4219 16.0281 21.4453 11.4641 21.4453ZM11.4641 4.49219C7.40312 4.49219 4.13281 8.08593 4.13281 12.4609C4.13281 16.8359 7.43906 20.4297 11.4641 20.4297C15.4891 20.4297 18.7953 16.8359 18.7953 12.4609C18.7953 8.08593 15.525 4.49219 11.4641 4.49219Z" fill="#28164D"/>
<path d="M14.0515 17.0703L10.9968 13.75V7.69531H11.9671V13.3203L14.7343 16.3281L14.0515 17.0703Z" fill="#28164D"/>
</svg>
