<svg width="24" height="24" viewBox="0 0 24 24" fill="none" xmlns="http://www.w3.org/2000/svg">
<path d="M13.6968 12L21.2484 4.4484C21.4734 4.22339 21.5998 3.91821 21.5998 3.6C21.5998 3.28178 21.4734 2.97661 21.2484 2.7516C21.0234 2.52659 20.7182 2.40018 20.4 2.40018C20.0818 2.40018 19.7766 2.52659 19.5516 2.7516L12 10.3032L4.44837 2.7516C4.33695 2.64018 4.20468 2.5518 4.05912 2.49151C3.91355 2.43121 3.75753 2.40018 3.59997 2.40018C3.4424 2.40018 3.28638 2.43121 3.14081 2.49151C2.99525 2.5518 2.86298 2.64018 2.75157 2.7516C2.52656 2.97661 2.40015 3.28178 2.40015 3.6C2.40015 3.91821 2.52656 4.22339 2.75157 4.4484L10.3032 12L2.75157 19.5516C2.52656 19.7766 2.40015 20.0818 2.40015 20.4C2.40015 20.7182 2.52656 21.0234 2.75157 21.2484C2.97658 21.4734 3.28175 21.5998 3.59997 21.5998C3.91818 21.5998 4.22336 21.4734 4.44837 21.2484L12 13.6968L19.5516 21.2484C19.6627 21.3602 19.7949 21.449 19.9405 21.5095C20.0861 21.5701 20.2423 21.6012 20.4 21.6012C20.5577 21.6012 20.7138 21.5701 20.8594 21.5095C21.005 21.449 21.1372 21.3602 21.2484 21.2484C21.3599 21.1371 21.4484 21.0048 21.5088 20.8592C21.5691 20.7136 21.6002 20.5576 21.6002 20.4C21.6002 20.2424 21.5691 20.0863 21.5088 19.9408C21.4484 19.7952 21.3599 19.6629 21.2484 19.5516L13.6968 12Z" fill="#25262D"/>
</svg>
