<svg width="29" height="29" viewBox="0 0 29 29" fill="none" xmlns="http://www.w3.org/2000/svg">
<g clip-path="url(#clip0)">
<path d="M29 26.2351C29 27.7623 27.7623 29 26.2351 29H2.76486C1.23772 29 0 27.7623 0 26.2351V2.76486C0 1.23772 1.23772 0 2.76486 0H26.2351C27.7623 0 29 1.23772 29 2.76486V26.2351Z" fill="#BDBDBD"/>
<path d="M21.4773 18.8396C21.8259 19.1881 21.8259 19.7536 21.4773 20.1022L20.1021 21.4774C19.7535 21.826 19.188 21.826 18.8394 21.4774L7.52364 10.1604C7.17506 9.81186 7.17506 9.24636 7.52364 8.89778L8.89882 7.5226C9.2474 7.17402 9.8129 7.17402 10.1615 7.5226L21.4773 18.8396Z" fill="white"/>
<path d="M18.8396 7.52361C19.1882 7.17503 19.7537 7.17503 20.1023 7.52361L21.4775 8.89879C21.826 9.24737 21.826 9.81287 21.4775 10.1615L10.1605 21.4773C9.81192 21.8258 9.24643 21.8258 8.89785 21.4773L7.52267 20.1021C7.17409 19.7535 7.17409 19.188 7.52267 18.8394L18.8396 7.52361Z" fill="white"/>
</g>
<defs>
<clipPath id="clip0">
<rect width="29" height="29" fill="white"/>
</clipPath>
</defs>
</svg>
