<svg width="24" height="24" viewBox="0 0 24 24" fill="none" xmlns="http://www.w3.org/2000/svg">
<path fill-rule="evenodd" clip-rule="evenodd" d="M5.57143 7C5.57143 7.43829 5.64877 7.85903 5.79091 8.25H4.92857C3.86345 8.25 3 9.08947 3 10.125V12L21 12V10.125C21 9.15669 20.245 8.35981 19.2761 8.26044C19.557 7.6895 19.7143 7.05011 19.7143 6.375C19.7143 3.95875 17.6996 2 15.2143 2C13.6931 2 12.3482 2.73383 11.5337 3.85723C10.9284 3.4732 10.2053 3.25 9.42857 3.25C7.29833 3.25 5.57143 4.92893 5.57143 7ZM15.2143 8.25C16.2794 8.25 17.1429 7.41053 17.1429 6.375C17.1429 5.33947 16.2794 4.5 15.2143 4.5C14.1492 4.5 13.2857 5.33947 13.2857 6.375V8.25H15.2143ZM10.7143 7V8.25H9.42857C8.71849 8.25 8.14286 7.69036 8.14286 7C8.14286 6.30964 8.71849 5.75 9.42857 5.75C10.1387 5.75 10.7143 6.30964 10.7143 7Z" fill="#909090"/>
<path d="M4.28571 14.5H10.7143V22H6.21429C5.14917 22 4.28571 21.1605 4.28571 20.125V14.5Z" fill="#909090"/>
<path d="M19.7143 14.5H13.2857V22H17.7857C18.8508 22 19.7143 21.1605 19.7143 20.125V14.5Z" fill="#909090"/>
</svg>
