<svg width="24" height="24" viewBox="0 0 24 24" fill="none" xmlns="http://www.w3.org/2000/svg">
<path fill-rule="evenodd" clip-rule="evenodd" d="M19.0714 1H4.92857C3.86353 1 3 1.7449 3 2.66376V22.6935C3 22.8857 3.26399 22.9869 3.42941 22.8582L5.56923 21.1919C5.81407 21.0014 6.18604 21.0014 6.43087 21.1919L8.56913 22.8571C8.81396 23.0476 9.18593 23.0476 9.43077 22.8571L11.5693 21.1919C11.8139 21.0014 12.1861 21.0014 12.4307 21.1919L14.5692 22.8571C14.8141 23.0476 15.186 23.0476 15.4309 22.8571L17.5691 21.1919C17.814 21.0014 18.1859 21.0014 18.4308 21.1919L20.5706 22.8582C20.6462 22.917 20.7423 22.9278 20.8245 22.9039C20.9222 22.8755 21 22.7979 21 22.6935V2.66376C21 1.7449 20.1365 1 19.0714 1ZM18.4286 5.4H5.57143V7.60001H18.4286V5.4ZM18.4286 9.80001V12H5.57143V9.80001H18.4286ZM13.2857 14.2H5.57143V16.4H13.2857V14.2Z" fill="#909090"/>
</svg>
