<svg width="18" height="18" viewBox="0 0 18 18" fill="none" xmlns="http://www.w3.org/2000/svg">
<path d="M11.625 2.25H6.375C5.28098 2.25 4.23177 2.6846 3.45818 3.45818C2.6846 4.23177 2.25 5.28098 2.25 6.375V11.625C2.25 12.719 2.6846 13.7682 3.45818 14.5418C4.23177 15.3154 5.28098 15.75 6.375 15.75H11.625C12.719 15.75 13.7682 15.3154 14.5418 14.5418C15.3154 13.7682 15.75 12.719 15.75 11.625V6.375C15.75 5.28098 15.3154 4.23177 14.5418 3.45818C13.7682 2.6846 12.719 2.25 11.625 2.25ZM14.625 11.625C14.6241 12.4204 14.3077 13.1829 13.7453 13.7453C13.1829 14.3077 12.4204 14.6241 11.625 14.625H6.375C5.57963 14.6241 4.81709 14.3077 4.25468 13.7453C3.69226 13.1829 3.3759 12.4204 3.375 11.625V6.375C3.37589 5.57962 3.69225 4.81708 4.25467 4.25467C4.81708 3.69225 5.57962 3.37589 6.375 3.375H11.625C12.4204 3.37589 13.1829 3.69225 13.7453 4.25467C14.3077 4.81708 14.6241 5.57962 14.625 6.375V11.625Z" fill="#FEFEFE"/>
<path d="M9 5.625C8.33249 5.625 7.67997 5.82294 7.12495 6.19379C6.56994 6.56464 6.13735 7.09174 5.88191 7.70844C5.62646 8.32514 5.55963 9.00374 5.68985 9.65843C5.82008 10.3131 6.14151 10.9145 6.61352 11.3865C7.08552 11.8585 7.68689 12.1799 8.34157 12.3102C8.99626 12.4404 9.67486 12.3735 10.2916 12.1181C10.9083 11.8626 11.4354 11.4301 11.8062 10.875C12.1771 10.32 12.375 9.66751 12.375 9C12.375 8.10489 12.0194 7.24645 11.3865 6.61351C10.7536 5.98058 9.89511 5.625 9 5.625ZM9 11.25C8.55499 11.25 8.11998 11.118 7.74997 10.8708C7.37996 10.6236 7.09157 10.2722 6.92127 9.86104C6.75098 9.4499 6.70642 8.9975 6.79323 8.56105C6.88005 8.12459 7.09434 7.72368 7.40901 7.40901C7.72368 7.09434 8.12459 6.88005 8.56105 6.79323C8.99751 6.70642 9.44991 6.75097 9.86104 6.92127C10.2722 7.09157 10.6236 7.37996 10.8708 7.74997C11.118 8.11998 11.25 8.55499 11.25 9C11.2493 9.59653 11.0121 10.1684 10.5902 10.5902C10.1684 11.0121 9.59653 11.2493 9 11.25Z" fill="#FEFEFE"/>
<path d="M12.525 6.22499C12.9392 6.22499 13.275 5.88921 13.275 5.47499C13.275 5.06078 12.9392 4.72499 12.525 4.72499C12.1108 4.72499 11.775 5.06078 11.775 5.47499C11.775 5.88921 12.1108 6.22499 12.525 6.22499Z" fill="#FEFEFE"/>
</svg>
