<svg width="23" height="25" viewBox="0 0 23 25" fill="none" xmlns="http://www.w3.org/2000/svg">
<path d="M11.5 21.7578L11.1766 21.3281C10.961 21.0156 5.46252 14.0234 5.46252 9.84376C5.46252 6.21094 8.19378 3.28125 11.5 3.28125C14.8063 3.28125 17.5375 6.25001 17.5375 9.84376C17.5375 14.0234 12.0391 21.0547 11.8235 21.3281L11.5 21.7578ZM11.5 4.17969C8.62503 4.17969 6.32503 6.71875 6.32503 9.80469C6.32503 13.0859 10.3141 18.6719 11.5 20.2734C12.686 18.6719 16.675 13.125 16.675 9.80469C16.675 6.71875 14.375 4.17969 11.5 4.17969Z" fill="#28164D"/>
<path d="M11.5001 12.3438C10.2423 12.3438 9.20007 11.2109 9.20007 9.84376C9.20007 8.47657 10.2423 7.34375 11.5001 7.34375C12.7579 7.34375 13.8001 8.47657 13.8001 9.84376C13.8001 11.2109 12.7579 12.3438 11.5001 12.3438ZM11.5001 8.28126C10.7094 8.28126 10.0626 8.98438 10.0626 9.84376C10.0626 10.7031 10.7094 11.4063 11.5001 11.4063C12.2907 11.4063 12.9376 10.7031 12.9376 9.84376C12.9376 8.98438 12.2907 8.28126 11.5001 8.28126Z" fill="#28164D"/>
</svg>
