<svg width="14" height="16" viewBox="0 0 14 16" fill="none" xmlns="http://www.w3.org/2000/svg">
<path fill-rule="evenodd" clip-rule="evenodd" d="M13.4 6.4C13.4 2.864 10.536 0 6.99998 0C3.46398 0 0.599976 2.864 0.599976 6.4C0.599976 6.52 0.599976 6.632 0.607974 6.752C0.711974 9.592 2.19998 12.848 6.31197 15.784C6.71997 16.072 7.27998 16.072 7.68798 15.784C11.8 12.848 13.288 9.592 13.392 6.752C13.4 6.63202 13.4 6.51997 13.4 6.4ZM8.69677 8.0968C9.14717 7.6472 9.39997 7.0368 9.39997 6.4C9.39997 5.7632 9.14637 5.1536 8.69677 4.7032C8.24717 4.2528 7.63678 4 6.99998 4C6.36318 4 5.75358 4.2536 5.30318 4.7032C4.85278 5.1528 4.59998 5.7632 4.59998 6.4C4.59998 7.0368 4.85278 7.6472 5.30318 8.0968C5.75278 8.5472 6.36318 8.8 6.99998 8.8C7.63598 8.8 8.24637 8.5472 8.69677 8.0968Z" fill="#3D3349"/>
</svg>
