<svg width="24" height="24" viewBox="0 0 24 24" fill="none" xmlns="http://www.w3.org/2000/svg">
<path fill-rule="evenodd" clip-rule="evenodd" d="M18.2857 2H5.71429C4.76758 2 4 2.67719 4 3.51251V21.7213C4 21.8961 4.23465 21.9881 4.3817 21.871L6.28376 20.3563C6.5014 20.1831 6.83203 20.1831 7.04967 20.3563L8.95034 21.8701C9.16797 22.0433 9.49861 22.0433 9.71624 21.8701L11.6172 20.3563C11.8345 20.1831 12.1655 20.1831 12.3828 20.3563L14.2838 21.8701C14.5014 22.0433 14.832 22.0433 15.0497 21.8701L16.9503 20.3563C17.168 20.1831 17.4986 20.1831 17.7162 20.3563L19.6183 21.871C19.6855 21.9245 19.7709 21.9344 19.844 21.9127C19.9308 21.8869 20 21.8163 20 21.7213V3.51251C20 2.67719 19.2324 2 18.2857 2ZM17.7143 6H6.28571V8H17.7143V6ZM17.7143 10V12H6.28571V10H17.7143ZM13.1429 14H6.28571V16H13.1429V14Z" fill="#909090"/>
</svg>
