<svg width="24" height="23" viewBox="0 0 24 23" fill="none" xmlns="http://www.w3.org/2000/svg">
<g clip-path="url(#clip0)">
<path d="M0.70636 6.95C0.70636 5.87304 1.56448 5 2.62303 5H21.7897C22.8482 5 23.7064 5.87304 23.7064 6.95V16.05C23.7064 17.127 22.8482 18 21.7897 18H2.62303C1.56448 18 0.70636 17.127 0.70636 16.05V6.95Z" fill="#1b0f29"/>
<path d="M13.5052 14.6465H11.6185V16H10.1419V14.6465H8.94073V13.457H10.1419V12.8301H8.94073V11.6406H10.1419V7.46875H13.4056C14.347 7.46875 15.0989 7.71484 15.6614 8.20703C16.2239 8.69531 16.5052 9.3457 16.5052 10.1582C16.5052 10.9863 16.2376 11.6367 15.7025 12.1094C15.1673 12.5781 14.4232 12.8184 13.47 12.8301H11.6185V13.457H13.5052V14.6465ZM11.6185 11.6406H13.3821C13.9134 11.6406 14.3196 11.5176 14.6009 11.2715C14.8821 11.0254 15.0228 10.6582 15.0228 10.1699C15.0228 9.73242 14.8841 9.375 14.6068 9.09766C14.3333 8.82031 13.9544 8.67578 13.47 8.66406H11.6185V11.6406Z" fill="white"/>
</g>
<defs>
<clipPath id="clip0">
<rect width="23.1825" height="23" fill="white" transform="translate(0.70636)"/>
</clipPath>
</defs>
</svg>
