<svg width="23" height="25" viewBox="0 0 23 25" fill="none" xmlns="http://www.w3.org/2000/svg">
<path d="M19.5032 16.2642C19.0629 15.4757 17.901 15.1277 17.2475 14.9904C16.0549 14.7399 14.5179 14.759 13.7729 15.3663C13.5276 15.5664 13.4055 15.9797 13.377 16.7067C13.3732 16.8025 13.3715 16.8961 13.3711 16.9847C12.1053 16.4533 10.9368 15.6606 9.93955 14.6564L9.50161 14.1831C8.57388 13.1067 7.84112 11.8456 7.34972 10.4797C7.43188 10.4793 7.51862 10.4775 7.60748 10.4734C8.2787 10.4426 8.6604 10.3108 8.84512 10.0462C9.40462 9.24458 9.42488 7.5894 9.19677 6.30468C9.07032 5.59223 8.74849 4.32563 8.01465 3.84692C7.28458 3.37065 6.15619 3.48554 5.7049 3.55713C4.7739 3.70464 3.99935 4.0622 3.63293 4.51347C3.31362 4.90678 3.20145 6.0292 3.16807 6.49345C3.16718 6.50566 3.16686 6.51821 3.16704 6.53047C3.22198 10.3121 4.56029 13.9231 6.93536 16.6972C6.93855 16.7008 6.94178 16.706 6.94506 16.7096L7.61089 17.4323C7.61417 17.4358 7.6175 17.4455 7.62095 17.4488C10.187 20.0153 13.5263 21.4354 17.0239 21.5331C17.0257 21.5331 17.0276 21.5331 17.0294 21.5331C17.0387 21.5331 17.0479 21.5205 17.0572 21.5198C17.4862 21.4837 18.5233 21.3504 18.8865 21.006C19.3043 20.6097 19.6354 19.7717 19.772 18.7644C19.8382 18.276 19.9446 17.0547 19.5032 16.2642ZM19.0609 18.6504C18.9535 19.442 18.6935 20.152 18.4142 20.4169C18.289 20.5291 17.6394 20.6731 17.0183 20.7272C13.7058 20.6665 10.544 19.296 8.11276 16.8667L7.4569 16.1578C5.20982 13.5307 3.94226 10.1147 3.88611 6.53574C3.93574 5.86606 4.06862 5.16538 4.17199 5.03022C4.41767 4.72768 5.07541 4.44634 5.80876 4.33012C6.57796 4.2082 7.28162 4.27968 7.64494 4.51675C7.99551 4.74546 8.3198 5.48725 8.49123 6.45273C8.7162 7.71982 8.62518 9.05156 8.28023 9.56308C8.14093 9.66943 7.50932 9.72641 6.91689 9.68789C6.85257 9.67026 6.78307 9.67143 6.71546 9.69594C6.65644 9.71738 6.60595 9.7539 6.56632 9.80019C6.50923 9.86391 6.47167 9.94897 6.46529 10.0447C6.45981 10.1271 6.47846 10.2054 6.51453 10.2715C7.01137 11.8502 7.80617 13.3124 8.83996 14.5552C8.85217 14.5765 8.86646 14.5967 8.88281 14.6157C8.98932 14.7391 9.09817 14.8602 9.20908 14.9786C9.31891 15.0988 9.43104 15.2166 9.54554 15.3319C9.56311 15.3496 9.58184 15.365 9.60143 15.3782C10.751 16.495 12.1033 17.354 13.5632 17.8908C13.624 17.9298 13.6959 17.95 13.7718 17.9438C13.8604 17.9368 13.9391 17.8953 13.9978 17.8324C14.0038 17.8262 14.0092 17.8195 14.0148 17.8129C14.0163 17.811 14.0179 17.8091 14.0195 17.8071C14.0512 17.7685 14.077 17.7231 14.0929 17.6708C14.1152 17.5975 14.1161 17.5222 14.0998 17.4524C14.0644 16.8138 14.1167 16.1334 14.2146 15.9832C14.6918 15.6071 15.932 15.5099 17.1113 15.7576C17.9976 15.9437 18.6788 16.2932 18.8889 16.6696C19.1076 17.0613 19.1735 17.8203 19.0609 18.6504Z" fill="#28164D"/>
</svg>
