<svg width="30" height="30" viewBox="0 0 30 30" fill="none" xmlns="http://www.w3.org/2000/svg">
<rect width="30" height="30" rx="10" fill="#C7C7C7"/>
<path d="M22.875 13.875H16.125V7.125C16.125 6.82663 16.0065 6.54048 15.7955 6.3295C15.5845 6.11853 15.2984 6 15 6C14.7016 6 14.4155 6.11853 14.2045 6.3295C13.9935 6.54048 13.875 6.82663 13.875 7.125V13.875H7.125C6.82663 13.875 6.54048 13.9935 6.3295 14.2045C6.11853 14.4155 6 14.7016 6 15C6 15.2984 6.11853 15.5845 6.3295 15.7955C6.54048 16.0065 6.82663 16.125 7.125 16.125H13.875V22.875C13.875 23.1734 13.9935 23.4595 14.2045 23.6705C14.4155 23.8815 14.7016 24 15 24C15.2984 24 15.5845 23.8815 15.7955 23.6705C16.0065 23.4595 16.125 23.1734 16.125 22.875V16.125H22.875C23.1734 16.125 23.4595 16.0065 23.6705 15.7955C23.8815 15.5845 24 15.2984 24 15C24 14.7016 23.8815 14.4155 23.6705 14.2045C23.4595 13.9935 23.1734 13.875 22.875 13.875Z" fill="white"/>
</svg>
