<svg width="30" height="30" viewBox="0 0 30 30" fill="none" xmlns="http://www.w3.org/2000/svg">
<rect width="30" height="30" rx="10" fill="#F2BB18"/>
<path d="M21.5625 14.0625H15.9375V8.4375C15.9375 8.18886 15.8387 7.9504 15.6629 7.77459C15.4871 7.59877 15.2486 7.5 15 7.5C14.7514 7.5 14.5129 7.59877 14.3371 7.77459C14.1613 7.9504 14.0625 8.18886 14.0625 8.4375V14.0625H8.4375C8.18886 14.0625 7.9504 14.1613 7.77459 14.3371C7.59877 14.5129 7.5 14.7514 7.5 15C7.5 15.2486 7.59877 15.4871 7.77459 15.6629C7.9504 15.8387 8.18886 15.9375 8.4375 15.9375H14.0625V21.5625C14.0625 21.8111 14.1613 22.0496 14.3371 22.2254C14.5129 22.4012 14.7514 22.5 15 22.5C15.2486 22.5 15.4871 22.4012 15.6629 22.2254C15.8387 22.0496 15.9375 21.8111 15.9375 21.5625V15.9375H21.5625C21.8111 15.9375 22.0496 15.8387 22.2254 15.6629C22.4012 15.4871 22.5 15.2486 22.5 15C22.5 14.7514 22.4012 14.5129 22.2254 14.3371C22.0496 14.1613 21.8111 14.0625 21.5625 14.0625Z" fill="black"/>
</svg>
