<svg width="81" height="76" viewBox="0 0 81 76" fill="none" xmlns="http://www.w3.org/2000/svg">
<path d="M80.6042 14.7466L80.5814 14.8995L80.5192 15.3415L74.0989 61.5372L34.7865 76L34.1705 75.7048L12.1607 65.2238L0.779881 21.439L0 18.4333L0.237462 18.3419L48.9276 0L80.5753 14.7291L80.6042 14.7466Z" fill="#57345C"/>
<path d="M34.1705 75.7049L12.1607 65.2239L0 18.4334L0.237462 18.342L31.9588 31.7611L34.1705 75.7049Z" fill="#7B4A82"/>
<path opacity="0.2" d="M34.7225 75.1709L17.9807 43.0014L20.131 33.8814L10.0041 21.9243L9.14185 22.6588L18.8981 34.1783L11.6103 65.0932L12.7117 65.355L17.5828 44.6892L33.7192 75.6954L34.7225 75.1709Z" fill="black"/>
<path d="M80.6042 15.3133L80.5192 15.3415L31.9588 32.3285L0.779881 21.439L0 18.4333L0.237462 18.3419L48.9276 0L80.5753 14.7291L80.5814 14.8995L80.6042 15.3133Z" fill="#4C2E51"/>
<path d="M32.8075 33.1792L22.9084 25.523L25.1709 17.0154L53.453 6.80591L72.6851 7.9402L80.3216 14.463L80.8868 16.164L32.8075 33.1792Z" fill="#7B4A82"/>
<path d="M0.565186 18.4334L22.908 17.582L35.0117 13.4631L53.8827 6.80582L57.4123 1.70196L48.6059 0.121338L0.565186 18.4334Z" fill="#7B4A82"/>
<path d="M45.0799 9.3066L33.4299 13.4059L33.8045 14.476L45.4544 10.3767L45.0799 9.3066Z" fill="#CCCCCC"/>
</svg>
