<svg width="179" height="34" viewBox="0 0 179 34" fill="none" xmlns="http://www.w3.org/2000/svg">
<path fill-rule="evenodd" clip-rule="evenodd" d="M149.291 19.1967C149.274 19.281 149.316 19.3232 149.417 19.3232H152.31C152.411 19.3232 152.462 19.281 152.436 19.1967L150.927 10.9578C150.91 10.9072 150.885 10.8819 150.851 10.8819C150.817 10.8819 150.792 10.9072 150.775 10.9578L149.291 19.1967ZM164.436 15.7814C164.436 15.2248 164.285 14.7694 163.989 14.4237C163.694 14.0779 163.306 13.9009 162.817 13.9009C162.345 13.9009 161.974 14.0779 161.687 14.4237C161.401 14.7694 161.257 15.2248 161.257 15.7814V20.605C161.257 21.1615 161.401 21.6085 161.687 21.9458C161.974 22.2831 162.353 22.4517 162.817 22.4517C163.306 22.4517 163.694 22.2831 163.989 21.9458C164.285 21.6085 164.436 21.1615 164.436 20.605V15.7814ZM163.762 11.3204C164.925 11.3204 165.828 11.6999 166.469 12.4504C167.11 13.2094 167.43 14.2382 167.43 15.5368V20.7989C167.43 22.1397 167.11 23.177 166.469 23.9275C165.828 24.678 164.925 25.0491 163.762 25.0491C163.365 25.0491 162.952 24.9732 162.539 24.8298C162.126 24.678 161.746 24.4419 161.417 24.113C161.384 24.0793 161.35 24.0709 161.316 24.0877C161.282 24.1046 161.266 24.1383 161.266 24.1889V29.451C161.266 29.5353 161.232 29.6112 161.173 29.6702C161.114 29.7293 161.038 29.763 160.954 29.763H158.559C158.474 29.763 158.398 29.7293 158.339 29.6702C158.28 29.6112 158.247 29.5353 158.247 29.451V11.8264C158.247 11.7421 158.28 11.6662 158.339 11.6071C158.398 11.5481 158.474 11.5144 158.559 11.5144H160.954C161.038 11.5144 161.114 11.5481 161.173 11.6071C161.232 11.6662 161.266 11.7421 161.266 11.8264V12.1384C161.266 12.189 161.291 12.2227 161.333 12.2312C161.375 12.2396 161.426 12.2059 161.476 12.1384C162.075 11.5987 162.834 11.3204 163.762 11.3204ZM176.006 15.7814C176.006 15.2248 175.854 14.7694 175.559 14.4237C175.264 14.0779 174.876 13.9009 174.387 13.9009C173.915 13.9009 173.544 14.0779 173.257 14.4237C172.97 14.7694 172.827 15.2248 172.827 15.7814V20.605C172.827 21.1615 172.97 21.6085 173.257 21.9458C173.544 22.2831 173.923 22.4517 174.387 22.4517C174.876 22.4517 175.264 22.2831 175.559 21.9458C175.854 21.6085 176.006 21.1615 176.006 20.605V15.7814ZM175.332 11.3204C176.495 11.3204 177.398 11.6999 178.039 12.4504C178.679 13.2094 179 14.2382 179 15.5368V20.7989C179 22.1397 178.679 23.177 178.039 23.9275C177.398 24.678 176.495 25.0491 175.332 25.0491C174.935 25.0491 174.522 24.9732 174.109 24.8298C173.696 24.678 173.316 24.4419 172.987 24.113C172.954 24.0793 172.92 24.0709 172.886 24.0877C172.852 24.1046 172.836 24.1383 172.836 24.1889V29.451C172.836 29.5353 172.802 29.6112 172.743 29.6702C172.684 29.7293 172.608 29.763 172.524 29.763H170.129C170.044 29.763 169.968 29.7293 169.909 29.6702C169.85 29.6112 169.817 29.5353 169.817 29.451V11.8264C169.817 11.7421 169.85 11.6662 169.909 11.6071C169.968 11.5481 170.044 11.5144 170.129 11.5144H172.524C172.608 11.5144 172.684 11.5481 172.743 11.6071C172.802 11.6662 172.836 11.7421 172.836 11.8264V12.1384C172.836 12.189 172.861 12.2227 172.903 12.2312C172.945 12.2396 172.996 12.2059 173.046 12.1384C173.645 11.5987 174.412 11.3204 175.332 11.3204ZM153.777 24.8551C153.566 24.8551 153.457 24.7623 153.44 24.5684L152.942 21.8277C152.942 21.7434 152.892 21.7012 152.782 21.7012H148.979C148.878 21.7012 148.819 21.7434 148.819 21.8277L148.321 24.5684C148.304 24.7623 148.195 24.8551 147.984 24.8551H145.614C145.37 24.8551 145.277 24.7455 145.328 24.5178L149.181 6.89319C149.215 6.69923 149.325 6.60648 149.519 6.60648H152.285C152.479 6.60648 152.588 6.69923 152.622 6.89319L156.476 24.5178V24.619C156.476 24.7792 156.383 24.8551 156.189 24.8551H153.777Z" fill="#FFCD00"/>
<path fill-rule="evenodd" clip-rule="evenodd" d="M33.7465 3.60143V27.3109C33.7465 30.6113 31.1123 33.3131 27.8945 33.3131H0.801758V16.8199C10.1217 33.2362 16.6989 26.7381 33.7465 3.60143Z" fill="white"/>
<path fill-rule="evenodd" clip-rule="evenodd" d="M52.9323 9.00145C52.848 9.00145 52.8058 9.04361 52.8058 9.12794V14.3141C52.8058 14.3985 52.848 14.4406 52.9323 14.4406H54.5261C55.1501 14.4406 55.6561 14.1961 56.0525 13.707C56.4404 13.2179 56.6428 12.5601 56.6428 11.7252C56.6428 10.8904 56.4488 10.2242 56.0525 9.7351C55.6645 9.23757 55.1501 8.99302 54.5261 8.99302H52.9323V9.00145ZM66.0707 13.7238C65.5984 13.7238 65.219 13.9009 64.9238 14.2467C64.6287 14.5924 64.4769 15.0393 64.4769 15.579V16.7512C64.4769 16.8355 64.519 16.8777 64.6034 16.8777H67.5464C67.6307 16.8777 67.6729 16.8355 67.6729 16.7512V15.579C67.6729 15.0225 67.5211 14.5755 67.226 14.2382C66.9477 13.8925 66.5513 13.7238 66.0707 13.7238ZM70.6834 18.7835C70.6834 18.8679 70.6497 18.9437 70.5907 19.0028C70.5316 19.0618 70.4557 19.0955 70.3714 19.0955H64.6118C64.5274 19.0955 64.4853 19.1377 64.4853 19.222V20.3942C64.4853 20.9339 64.6371 21.3724 64.9322 21.7266C65.2274 22.0723 65.6069 22.2494 66.0791 22.2494C66.4754 22.2494 66.8212 22.1229 67.1079 21.8699C67.3946 21.6169 67.5801 21.2881 67.6645 20.8917C67.7151 20.7146 67.8331 20.6303 68.0018 20.6303L70.3208 20.7315C70.4051 20.7315 70.481 20.7652 70.54 20.8243C70.5991 20.8833 70.6244 20.9676 70.6075 21.0688C70.4895 22.2831 70.0425 23.2192 69.2751 23.8685C68.5077 24.5178 67.4452 24.8467 66.0707 24.8467C64.6455 24.8467 63.5239 24.4672 62.6975 23.7167C61.8711 22.9578 61.4579 21.929 61.4579 20.6303V15.3345C61.4579 14.0696 61.8711 13.0492 62.6975 12.2734C63.5239 11.4976 64.6455 11.1097 66.0707 11.1097C67.4958 11.1097 68.6174 11.4976 69.4438 12.2734C70.2702 13.0492 70.6834 14.0696 70.6834 15.3345V18.7835ZM78.5512 11.1181C79.6812 11.1181 80.533 11.4976 81.1148 12.2481C81.6967 13.007 81.9918 14.078 81.9918 15.4694V24.3323C81.9918 24.4166 81.9581 24.4925 81.8991 24.5516C81.84 24.6106 81.7642 24.6443 81.6798 24.6443H79.2849C79.2006 24.6443 79.1247 24.6106 79.0657 24.5516C79.0066 24.4925 78.9729 24.4166 78.9729 24.3323V15.7055C78.9729 15.0815 78.8464 14.5924 78.585 14.2467C78.3236 13.9009 77.9525 13.7238 77.4634 13.7238C76.9574 13.7238 76.5695 13.9093 76.2912 14.272C76.013 14.6346 75.878 15.1405 75.878 15.7814V24.3323C75.878 24.4166 75.8443 24.4925 75.7853 24.5516C75.7262 24.6106 75.6504 24.6443 75.566 24.6443H73.1711C73.0868 24.6443 73.0109 24.6106 72.9519 24.5516C72.8928 24.4925 72.8591 24.4166 72.8591 24.3323V11.6409C72.8591 11.5566 72.8928 11.4807 72.9519 11.4217C73.0109 11.3626 73.0868 11.3289 73.1711 11.3289H75.566C75.6504 11.3289 75.7262 11.3626 75.7853 11.4217C75.8443 11.4807 75.878 11.5566 75.878 11.6409V12.1638C75.878 12.2144 75.9033 12.2481 75.9455 12.2565C75.9877 12.2649 76.0383 12.2312 76.0889 12.1638C76.6707 11.4638 77.4971 11.1181 78.5512 11.1181ZM89.944 13.1504C89.944 13.2347 89.9103 13.3106 89.8512 13.3696C89.7922 13.4287 89.7163 13.4624 89.632 13.4624H88.0129C87.9285 13.4624 87.8864 13.5046 87.8864 13.5889V20.4195C87.8864 21.0267 87.996 21.4483 88.2237 21.6844C88.4514 21.9205 88.7887 22.0302 89.2441 22.0133H89.4296C89.5139 22.0133 89.5898 22.047 89.6488 22.1061C89.7079 22.1651 89.7416 22.241 89.7416 22.3253V24.3323C89.7416 24.4166 89.7079 24.4925 89.6488 24.5516C89.5898 24.6106 89.5139 24.6443 89.4296 24.6443H88.5441C87.3635 24.6443 86.4697 24.4251 85.871 23.995C85.2722 23.5565 84.9686 22.7469 84.9686 21.5411V13.5889C84.9686 13.5046 84.9265 13.4624 84.8421 13.4624H83.9314C83.8471 13.4624 83.7712 13.4287 83.7122 13.3696C83.6531 13.3106 83.6194 13.2347 83.6194 13.1504V11.6409C83.6194 11.5566 83.6531 11.4807 83.7122 11.4217C83.7712 11.3626 83.8471 11.3289 83.9314 11.3289H84.8421C84.9265 11.3289 84.9686 11.2867 84.9686 11.2024V8.33526C84.9686 8.25093 85.0024 8.17503 85.0614 8.116C85.1204 8.05697 85.1963 8.02324 85.2806 8.02324H87.5744C87.6587 8.02324 87.7346 8.05697 87.7936 8.116C87.8527 8.17503 87.8864 8.25093 87.8864 8.33526V11.2024C87.8864 11.2867 87.9285 11.3289 88.0129 11.3289H89.632C89.7163 11.3289 89.7922 11.3626 89.8512 11.4217C89.9103 11.4807 89.944 11.5566 89.944 11.6409V13.1504ZM96.6734 22.0133C97.3649 22.0133 97.913 21.7687 98.3178 21.2796C98.7141 20.7905 98.9165 20.1075 98.9165 19.222C98.9165 18.3197 98.7141 17.6114 98.3178 17.097C97.9214 16.5826 97.3733 16.3296 96.6734 16.3296H95.1639C95.0796 16.3296 95.0374 16.3717 95.0374 16.4561V21.8784C95.0374 21.9627 95.0796 22.0049 95.1639 22.0049H96.6734V22.0133ZM95.1555 9.00145C95.0712 9.00145 95.029 9.04361 95.029 9.12794V13.9768C95.029 14.0611 95.0712 14.1033 95.1555 14.1033H96.4879C97.1962 14.1033 97.7528 13.8841 98.1576 13.454C98.5539 13.0155 98.7563 12.3999 98.7563 11.6072C98.7563 10.7723 98.5539 10.1314 98.1576 9.67607C97.7612 9.2207 97.2047 9.00145 96.4879 9.00145H95.1555ZM101.935 19.6437C101.935 21.2459 101.472 22.4771 100.544 23.3457C99.6165 24.2143 98.4021 24.6528 96.9095 24.6528H92.3221C92.2377 24.6528 92.1618 24.619 92.1028 24.56C92.0438 24.501 92.0101 24.4251 92.0101 24.3408V6.71615C92.0101 6.63182 92.0438 6.55593 92.1028 6.4969C92.1618 6.43787 92.2377 6.40414 92.3221 6.40414H96.4373C98.0901 6.40414 99.3803 6.81735 100.325 7.65219C101.261 8.48704 101.733 9.70137 101.733 11.3036C101.733 13.0914 101.101 14.3732 99.8273 15.1321C99.7429 15.1827 99.7261 15.2333 99.7767 15.2923C100.451 15.7308 100.983 16.3127 101.37 17.0379C101.742 17.7632 101.935 18.6317 101.935 19.6437ZM109.365 11.1687C109.837 11.1687 110.2 11.253 110.461 11.4301C110.596 11.5144 110.655 11.6494 110.621 11.818L110.208 14.2382C110.191 14.4491 110.073 14.5081 109.845 14.4237C109.601 14.3563 109.373 14.3226 109.171 14.3226C108.96 14.3226 108.775 14.3479 108.597 14.3985C108.108 14.4659 107.712 14.7442 107.408 15.2164C107.105 15.6971 106.953 16.2621 106.953 16.9199V24.2986C106.953 24.3829 106.919 24.4588 106.86 24.5178C106.801 24.5769 106.725 24.6106 106.641 24.6106H104.246C104.162 24.6106 104.086 24.5769 104.027 24.5178C103.968 24.4588 103.934 24.3829 103.934 24.2986V11.6409C103.934 11.5566 103.968 11.4807 104.027 11.4217C104.086 11.3626 104.162 11.3289 104.246 11.3289H106.641C106.725 11.3289 106.801 11.3626 106.86 11.4217C106.919 11.4807 106.953 11.5566 106.953 11.6409V12.8384C106.953 12.9058 106.97 12.948 107.004 12.9564C107.037 12.9649 107.063 12.9311 107.08 12.8637C107.543 11.7337 108.302 11.1687 109.365 11.1687ZM116.195 22.3506C116.718 22.3506 117.174 22.182 117.578 21.8531C117.975 21.5242 118.177 21.0604 118.177 20.4701V18.9859C118.177 18.9016 118.135 18.8594 118.051 18.8594H116.693C116.103 18.8594 115.622 19.0196 115.259 19.3401C114.897 19.6605 114.711 20.1243 114.711 20.7315C114.711 21.2712 114.846 21.676 115.124 21.9458C115.403 22.2157 115.765 22.3506 116.195 22.3506ZM116.583 11.1181C117.958 11.1181 119.071 11.5144 119.923 12.3155C120.774 13.1167 121.196 14.1623 121.196 15.4694V24.3323C121.196 24.4166 121.162 24.4925 121.103 24.5516C121.044 24.6106 120.968 24.6443 120.884 24.6443H118.489C118.405 24.6443 118.329 24.6106 118.27 24.5516C118.211 24.4925 118.177 24.4166 118.177 24.3323V23.8348C118.177 23.7842 118.16 23.7505 118.127 23.7336C118.093 23.7167 118.059 23.7336 118.025 23.7842C117.418 24.4925 116.533 24.8552 115.369 24.8552C114.382 24.8552 113.505 24.5684 112.746 24.0119C111.987 23.4469 111.616 22.4181 111.616 20.9255C111.616 19.3654 112.072 18.2523 112.982 17.5861C113.893 16.9283 115.133 16.5994 116.693 16.5994H118.051C118.135 16.5994 118.177 16.5573 118.177 16.4729V15.7983C118.177 15.1743 118.017 14.6767 117.705 14.2973C117.393 13.9262 117.005 13.7407 116.533 13.7407C116.17 13.7407 115.867 13.8588 115.622 14.0949C115.377 14.331 115.234 14.643 115.175 15.0478C115.158 15.2586 115.049 15.3598 114.838 15.3598H112.308C112.097 15.3598 112.004 15.2586 112.021 15.0478C112.105 13.8672 112.569 12.9227 113.413 12.2059C114.264 11.4723 115.318 11.1181 116.583 11.1181ZM129.148 11.1181C130.278 11.1181 131.13 11.4976 131.712 12.2481C132.294 13.007 132.589 14.078 132.589 15.4694V24.3323C132.589 24.4166 132.555 24.4925 132.496 24.5516C132.437 24.6106 132.361 24.6443 132.277 24.6443H129.882C129.798 24.6443 129.722 24.6106 129.663 24.5516C129.604 24.4925 129.57 24.4166 129.57 24.3323V15.7055C129.57 15.0815 129.443 14.5924 129.182 14.2467C128.921 13.9009 128.55 13.7238 128.06 13.7238C127.554 13.7238 127.167 13.9093 126.888 14.272C126.61 14.6346 126.475 15.1405 126.475 15.7814V24.3323C126.475 24.4166 126.441 24.4925 126.382 24.5516C126.323 24.6106 126.247 24.6443 126.163 24.6443H123.768C123.684 24.6443 123.608 24.6106 123.549 24.5516C123.49 24.4925 123.456 24.4166 123.456 24.3323V11.6409C123.456 11.5566 123.49 11.4807 123.549 11.4217C123.608 11.3626 123.684 11.3289 123.768 11.3289H126.163C126.247 11.3289 126.323 11.3626 126.382 11.4217C126.441 11.4807 126.475 11.5566 126.475 11.6409V12.1638C126.475 12.2144 126.5 12.2481 126.542 12.2565C126.585 12.2649 126.635 12.2312 126.686 12.1638C127.268 11.4638 128.094 11.1181 129.148 11.1181ZM139.369 22.2494C139.782 22.2494 140.136 22.1145 140.414 21.8446C140.693 21.5748 140.87 21.2122 140.937 20.7652V15.208C140.87 14.7526 140.693 14.3985 140.414 14.1286C140.136 13.8588 139.79 13.7238 139.369 13.7238C138.88 13.7238 138.492 13.8925 138.197 14.2298C137.902 14.5671 137.75 15.014 137.75 15.5706V20.3942C137.75 20.9508 137.902 21.3977 138.197 21.735C138.492 22.0808 138.888 22.2494 139.369 22.2494ZM140.937 6.70772C140.937 6.62339 140.971 6.5475 141.03 6.48847C141.089 6.42944 141.165 6.39571 141.249 6.39571H143.644C143.729 6.39571 143.804 6.42944 143.864 6.48847C143.923 6.5475 143.956 6.62339 143.956 6.70772V24.3323C143.956 24.4166 143.923 24.4925 143.864 24.5516C143.804 24.6106 143.729 24.6443 143.644 24.6443H141.249C141.165 24.6443 141.089 24.6106 141.03 24.5516C140.971 24.4925 140.937 24.4166 140.937 24.3323V24.0203C140.937 23.9697 140.92 23.936 140.887 23.9191C140.853 23.9022 140.819 23.9107 140.786 23.9444C140.162 24.5516 139.377 24.8552 138.441 24.8552C137.277 24.8552 136.375 24.4757 135.734 23.7083C135.093 22.9409 134.773 21.9205 134.773 20.6303V15.3345C134.773 14.0105 135.102 12.9817 135.751 12.2312C136.4 11.4807 137.303 11.1097 138.45 11.1097C138.846 11.1097 139.259 11.1855 139.672 11.3289C140.086 11.4807 140.465 11.7168 140.794 12.0457C140.828 12.0794 140.861 12.0879 140.895 12.071C140.929 12.0541 140.946 12.0204 140.946 11.9698V6.70772H140.937ZM56.9969 24.6443C56.8198 24.6443 56.7102 24.56 56.6596 24.3829L54.4418 16.903C54.408 16.8355 54.3659 16.8018 54.3153 16.8018H52.9323C52.848 16.8018 52.8058 16.844 52.8058 16.9283V24.3323C52.8058 24.4166 52.7721 24.4925 52.7131 24.5516C52.654 24.6106 52.5781 24.6443 52.4938 24.6443H50.0989C50.0145 24.6443 49.9386 24.6106 49.8796 24.5516C49.8206 24.4925 49.7869 24.4166 49.7869 24.3323V6.70772C49.7869 6.62339 49.8206 6.5475 49.8796 6.48847C49.9386 6.42944 50.0145 6.39571 50.0989 6.39571H54.9983C55.9175 6.39571 56.7355 6.61496 57.4354 7.0619C58.1354 7.50884 58.6835 8.13286 59.0798 8.94242C59.4677 9.75197 59.6701 10.6796 59.6701 11.7168C59.6701 12.7962 59.4593 13.7238 59.0461 14.5081C58.6329 15.2923 58.051 15.8826 57.3005 16.279C57.2331 16.2958 57.2078 16.3464 57.2246 16.4392L59.7798 24.2817C59.7966 24.3155 59.8051 24.3576 59.8051 24.4082C59.8051 24.5684 59.7123 24.6443 59.5184 24.6443H56.9969Z" fill="white"/>
<path fill-rule="evenodd" clip-rule="evenodd" d="M0.801758 10.8791C8.92125 21.5049 14.023 21.2011 22.8928 12.221C26.6774 8.38929 30.212 4.08493 33.7465 0H6.65379C3.436 0 0.801758 2.66702 0.801758 5.92483V10.8791Z" fill="#FFCD00"/>
</svg>
