<svg width="23" height="25" viewBox="0 0 23 25" fill="none" xmlns="http://www.w3.org/2000/svg">
<path d="M20.8998 12.9516C20.8998 12.6032 20.8768 12.2602 20.8437 11.9204C20.8437 11.9032 20.8401 11.8875 20.8372 11.8704C20.4067 7.72036 17.5396 4.28208 13.6921 3.4938L13.4449 3.44771C13.442 3.44692 13.4391 3.44614 13.4363 3.44614L13.3967 3.43833C13.3946 3.43755 13.3917 3.43755 13.3888 3.43677C12.9403 3.36177 12.4818 3.32349 12.0246 3.32349C8.1628 3.32349 4.76887 6.00474 3.57933 9.99536C3.41402 10.55 3.29471 11.1266 3.22427 11.7086C3.17396 12.1243 3.1488 12.5485 3.1488 12.9704C3.1488 13.093 3.15096 13.2157 3.15527 13.3375C3.21133 14.9461 3.63971 16.5243 4.39512 17.9024C4.4059 17.9219 4.41884 17.9415 4.43393 17.9579C4.4368 17.961 4.43968 17.9649 4.44327 17.968C4.52737 18.0633 4.59637 18.1563 4.65387 18.2516C5.37765 19.4422 6.32568 20.4055 7.40452 21.1297C7.43902 21.1688 7.48071 21.1977 7.52959 21.2141C8.87724 22.0844 10.4254 22.5766 12.0462 22.5766C15.1663 22.5766 17.9975 20.8438 19.6132 17.9618C19.6297 17.9438 19.6441 17.9235 19.6556 17.9016C20.47 16.4149 20.9012 14.7102 20.9012 12.9618V12.9516H20.8998ZM20.2328 11.811C20.0315 12.0446 19.7677 12.3774 19.6736 12.6211C19.6549 12.6399 19.5801 12.6657 19.5356 12.6813C19.4041 12.7266 19.2244 12.7883 19.1381 12.9899C19.0828 13.1188 19.0849 13.2657 19.1453 13.425C19.2531 13.7102 19.3185 14.4266 18.9807 14.7938C18.5286 15.2852 18.249 15.7633 18.249 16.6274C18.249 17.2743 17.7459 18.0899 17.2744 18.8032C17.2205 18.8844 17.1623 18.9657 17.0983 19.0477C17.0351 19.1297 16.9682 19.2102 16.8992 19.2891C16.7907 19.4118 16.6793 19.5274 16.5664 19.6321C16.3932 19.729 16.2121 19.8211 16.0151 19.9157C15.9469 19.9485 15.8779 19.9805 15.8089 20.011C15.7722 19.9407 15.7233 19.8321 15.6637 19.6696C15.4617 19.1149 15.2842 18.3282 15.2842 17.9844C15.2842 17.7602 15.3359 17.6336 15.4006 17.4735C15.4725 17.2954 15.5544 17.0946 15.5544 16.786C15.5544 16.425 15.3906 16.1922 15.2712 16.0227C15.1699 15.879 15.1174 15.7977 15.1174 15.6782C15.1174 15.0899 14.8199 14.7688 14.5812 14.5102L14.5518 14.4782C14.2844 14.1868 13.8898 14.3641 13.4729 14.5508C13.2451 14.6524 12.9863 14.768 12.8232 14.768C12.4983 14.768 11.9276 14.168 11.6178 13.6305C11.3677 13.1954 11.4798 11.5485 11.9585 11.1649C12.6593 10.6032 12.8656 9.97505 12.8742 9.94849C12.9188 9.80786 12.8692 9.65161 12.7542 9.57114C12.545 9.42583 12.5076 9.27661 12.4976 9.17661C12.4638 8.83833 12.7312 8.40708 12.9073 8.21567C12.9827 8.13364 13.2861 8.10552 13.4672 8.08755C13.7453 8.06177 13.9861 8.03911 14.1349 7.87583C14.3556 7.63677 14.2981 7.32505 14.2556 7.0977C14.2384 7.00239 14.2211 6.91255 14.2197 6.85083C14.242 6.78442 14.4706 6.57036 15.001 6.3688C15.4675 6.19067 16.1589 5.44927 16.2193 5.38208L16.3328 5.27661C18.4503 6.67427 19.9101 9.0688 20.2328 11.811ZM12.0246 3.96724C12.3287 3.96724 12.6306 3.99145 12.9274 4.02661L12.7801 4.30786C12.7729 4.32036 12.0469 5.54849 11.0622 5.74692C9.8993 5.98052 9.75412 6.09302 9.42924 6.44692C9.3358 6.54849 9.2323 6.57349 9.22296 6.57817C9.21865 6.57114 9.20715 6.53755 9.20715 6.47114C9.20715 6.3352 9.2359 6.18989 9.26105 6.06255C9.30705 5.82895 9.35952 5.56411 9.1669 5.38911C8.96637 5.2063 8.68893 5.32895 8.56962 5.3813L8.45965 5.42895C8.06793 5.60005 7.7294 5.7477 7.66399 6.0938C7.62662 6.29458 7.70424 6.46802 7.78546 6.58911C7.5533 6.69224 7.16949 6.9352 7.33768 7.51645C7.39734 7.72505 7.45627 7.88442 7.50443 8.01333C7.53965 8.10786 7.58349 8.22661 7.58421 8.25474C7.58349 8.25552 7.57415 8.28208 7.51521 8.34614C7.51234 8.34927 7.50946 8.35239 7.50659 8.35474C7.48143 8.33911 7.44693 8.31411 7.42105 8.29458C7.30534 8.20942 7.14721 8.09224 6.93374 8.09224C6.46727 8.09224 6.46655 8.60005 6.46655 8.76645C6.46655 8.82192 6.46655 8.91802 6.45793 8.96099C6.41552 8.96724 6.34149 8.9688 6.28974 8.96958C6.09209 8.9727 5.82184 8.97739 5.58034 9.14614C5.38555 9.28286 5.24755 9.50239 5.17065 9.79692C5.13471 9.93442 5.07649 10.0735 4.99815 10.2102C4.97802 10.2446 4.95718 10.2782 4.93562 10.3118C4.89105 10.3797 4.84218 10.4454 4.78971 10.5086C4.76312 10.5415 4.7358 10.5727 4.70777 10.6032C4.62368 10.6961 4.52952 10.786 4.42962 10.8704C4.39584 10.8985 4.36133 10.9258 4.32755 10.9524C4.19458 11.0555 4.05227 11.1477 3.90421 11.229C3.96746 10.8782 4.04293 10.5297 4.14355 10.1922C5.2533 6.46958 8.42012 3.96724 12.0246 3.96724ZM5.14765 17.8961C5.07362 17.7743 4.98808 17.6579 4.88674 17.5407C4.19243 16.2625 3.79927 14.8016 3.74752 13.3141C3.74465 13.2204 3.74321 13.1266 3.74249 13.0329C3.75471 13.0766 3.76837 13.1196 3.78346 13.1625C3.81149 13.2399 3.84383 13.3157 3.88193 13.3875C3.94805 13.5149 4.02927 13.6313 4.12343 13.7336C4.16296 13.7766 4.20752 13.8118 4.26287 13.8438C4.27077 13.8477 4.30024 13.8618 4.30815 13.8657C4.34049 13.879 4.37355 13.8891 4.40949 13.8961C4.4519 13.904 4.49502 13.9079 4.54462 13.904C4.59134 13.9016 4.64021 13.893 4.68621 13.8821L4.79115 13.8547L4.71855 13.5422L4.82924 13.8446L4.8774 13.8336C4.96868 13.8133 5.0269 13.8172 5.08584 13.8461C5.23605 13.9188 5.5329 14.111 5.85993 14.3477C6.00152 14.45 6.1424 14.5571 6.2689 14.6571C6.51543 14.8532 6.62037 14.9563 6.66133 15C6.7368 15.0821 6.76124 15.1524 6.79574 15.25C6.85468 15.4188 6.93518 15.6485 7.25646 15.8282C7.3614 15.8868 7.50946 15.9508 7.68124 16.025C7.96012 16.1454 8.70043 16.4649 8.76009 16.65C8.76009 16.8024 8.71624 16.8586 8.63646 16.961C8.54877 17.0727 8.41652 17.2422 8.41652 17.5211C8.41652 17.5813 8.42227 17.6493 8.43377 17.7235C8.44599 17.8047 8.46468 17.8954 8.48409 17.9899C8.53655 18.2438 8.60915 18.5922 8.50349 18.7071C8.41293 18.8055 8.30584 18.8563 8.18149 18.9157C7.96084 19.0211 7.68699 19.1516 7.50012 19.561C7.44549 19.6829 7.39734 20.0297 7.36499 20.3469C6.50177 19.7 5.74493 18.8782 5.14765 17.8961ZM20.3068 12.9704C20.3068 14.593 19.905 16.1844 19.1525 17.55C19.1367 17.5672 19.123 17.5868 19.1115 17.6079C17.5986 20.3157 14.9564 21.9329 12.0448 21.9329C10.5706 21.9329 9.15899 21.4985 7.92418 20.7243C7.94646 20.4415 8.00252 19.9407 8.03127 19.8461C8.12184 19.6469 8.23324 19.5938 8.41868 19.5055C8.56746 19.4344 8.75218 19.3461 8.9218 19.1625C9.25818 18.7961 9.14462 18.2485 9.06196 17.8485C9.04471 17.7665 9.0289 17.6891 9.01812 17.6188C9.01309 17.5829 9.00877 17.55 9.00877 17.5219C9.00877 17.4868 9.01524 17.4719 9.08784 17.379C9.19349 17.2438 9.35234 17.0399 9.35234 16.6508C9.35234 16.0532 8.5804 15.7204 7.89974 15.4266C7.7488 15.3618 7.60577 15.3 7.52671 15.2555C7.40812 15.1891 7.39446 15.15 7.34918 15.0219C7.30534 14.8969 7.24568 14.725 7.08037 14.5461C6.98693 14.4446 6.83096 14.3063 6.61821 14.1375C6.48524 14.0321 6.3379 13.9204 6.18912 13.8125C6.01662 13.6875 5.58752 13.3836 5.32662 13.2579C5.09949 13.1477 4.89609 13.1735 4.76312 13.2016L4.56402 13.2508C4.55108 13.254 4.53887 13.2571 4.52521 13.2586C4.47634 13.2024 4.43393 13.1391 4.39799 13.0696C4.37427 13.0243 4.35343 12.9758 4.33618 12.9274C4.32396 12.8938 4.31318 12.8594 4.30383 12.825L4.29018 12.7711C4.27293 12.6977 4.26071 12.6227 4.2528 12.5477C4.22262 12.2633 4.25065 11.9696 4.28874 11.7399C4.42099 11.6602 4.54965 11.5735 4.67184 11.479C4.71209 11.4477 4.75233 11.4157 4.79187 11.3821C4.91333 11.2805 5.02618 11.1711 5.12968 11.0586C5.1649 11.0196 5.19868 10.9805 5.23174 10.9407C5.29858 10.8594 5.3604 10.7758 5.41718 10.6899C5.44593 10.6461 5.47324 10.6016 5.49984 10.5563C5.60909 10.3672 5.6903 10.1719 5.74205 9.97505C5.77871 9.83286 5.83118 9.73989 5.90234 9.68989C6.0008 9.62114 6.15246 9.6188 6.29909 9.61645C6.49315 9.61333 6.7138 9.6102 6.87337 9.43677C7.0473 9.24849 7.0588 8.99224 7.06024 8.80864C7.0703 8.81567 7.07965 8.8227 7.08899 8.82974C7.23562 8.93833 7.57774 9.19145 7.93496 8.80317C8.29218 8.41489 8.18221 8.11802 8.05499 7.77427C8.01187 7.65786 7.95868 7.51489 7.90405 7.32583C7.89112 7.2813 7.89112 7.2563 7.88896 7.2563C7.91196 7.22349 8.02696 7.17974 8.08805 7.1563C8.24043 7.0977 8.4503 7.01802 8.50062 6.77505C8.55165 6.53052 8.3849 6.34927 8.32955 6.28989C8.30584 6.26411 8.28859 6.24302 8.27637 6.22661C8.36046 6.17036 8.52577 6.09692 8.66018 6.03755C8.63646 6.16645 8.61418 6.31489 8.61418 6.4727C8.61418 6.94692 8.87077 7.11411 8.98146 7.16411C9.2474 7.28364 9.59527 7.17895 9.84827 6.90474C10.0754 6.65708 10.1365 6.59067 11.1701 6.38286C12.407 6.13364 13.2458 4.71489 13.2882 4.64224L13.5592 4.12505L13.5851 4.12974C14.3656 4.28989 15.1009 4.57114 15.7816 4.94692C15.5192 5.22739 15.052 5.66802 14.8055 5.76177C14.2686 5.96567 13.6289 6.31802 13.6289 6.8352C13.6289 6.97817 13.6533 7.1102 13.6749 7.22583C13.6864 7.28677 13.7022 7.37427 13.7116 7.40786C13.6418 7.42505 13.5096 7.43755 13.4161 7.44692C13.0884 7.47739 12.7161 7.51333 12.4882 7.76099C12.2439 8.02661 11.8478 8.63833 11.9082 9.24692C11.9276 9.44067 12.0002 9.69849 12.2216 9.93208C12.1217 10.111 11.9326 10.3852 11.6071 10.6469C10.8502 11.254 10.7244 13.2915 11.1154 13.9727C11.4022 14.4711 12.1281 15.4133 12.8239 15.4133C13.1042 15.4133 13.4068 15.2782 13.6993 15.1477C13.8496 15.0805 14.0695 14.9821 14.1672 14.9711C14.3893 15.2118 14.5252 15.3758 14.5252 15.679C14.5252 16.0227 14.6776 16.2399 14.8005 16.4149C14.9068 16.5657 14.9622 16.6508 14.9622 16.7875C14.9622 16.9602 14.9191 17.0672 14.8587 17.2149C14.7839 17.3985 14.6919 17.6258 14.6919 17.986C14.6919 18.4602 14.9104 19.3532 15.1131 19.9086C15.2339 20.2399 15.3496 20.4625 15.4646 20.5875C15.5012 20.6282 15.5436 20.6618 15.5896 20.686C15.6313 20.7086 15.6766 20.7204 15.7226 20.7204C15.7586 20.7204 15.7952 20.7133 15.8297 20.6985C15.9727 20.6383 16.1143 20.5743 16.2545 20.5071C16.4751 20.4016 16.6757 20.2985 16.8755 20.186C16.8935 20.1758 16.9107 20.1625 16.9258 20.1485C17.0631 20.0227 17.1989 19.8836 17.329 19.736C17.4074 19.6469 17.4828 19.5555 17.5533 19.4641C17.6266 19.3704 17.6949 19.275 17.7574 19.1805C18.2828 18.3852 18.8434 17.4672 18.8434 16.629C18.8434 15.9766 19.0317 15.6532 19.4019 15.2508C19.8899 14.7204 19.8928 13.8383 19.7325 13.2922C19.8791 13.2415 20.1091 13.154 20.2141 12.8883C20.2299 12.8493 20.2608 12.7946 20.3003 12.7329C20.3018 12.8071 20.3097 12.8797 20.3097 12.954V12.9704H20.3068Z" fill="#28164D"/>
</svg>
