<svg width="15" height="8" viewBox="0 0 15 8" fill="none" xmlns="http://www.w3.org/2000/svg">
<path fill-rule="evenodd" clip-rule="evenodd" d="M0.0163458 0.593876C-0.086297 0.0829398 2.94166 0.399281 2.94166 0.399281C2.94166 0.399281 4.69942 4.00016 5.39226 4.00016C6.0851 4.00016 5.75151 0.946713 5.75151 0.946713C5.75151 0.946713 4.89187 0.764235 4.89187 0.484437C4.89187 0.204639 5.75151 0.00999641 5.75151 0.00999641C5.75151 0.00999641 7.97618 0.00999644 8.27908 0.00999641C8.58199 0.00999639 8.70253 0.411446 8.70253 0.679079C8.70253 0.946713 8.70253 3.9515 8.70253 3.9515H9.39537C9.39537 3.9515 10.0121 3.14288 10.4987 2.32137C10.9854 1.49987 11.5765 0.399281 11.5765 0.399281H14.5146C14.5146 0.399281 15.0535 0.411351 14.9893 0.776353C14.9021 1.27291 12.9473 3.63096 12.5388 4.43806C12.2308 5.04632 13.8323 5.8696 14.5146 6.74944C14.9574 7.32047 14.9893 7.99033 14.9893 7.99033H11.4995L9.75457 6.33582C9.75457 6.33582 9.39537 6.21422 9.11306 6.38449C8.83074 6.55475 8.81796 6.89542 8.81796 6.89542V7.99033H6.08509C6.08509 7.99033 3.99375 7.40641 2.22316 4.85172C0.452577 2.29704 0.118988 1.10481 0.0163458 0.593876Z" fill="#FEFEFE"/>
</svg>
